<?xml version="1.0" encoding="utf-8"?>
<!-- Generator: Adobe Illustrator 16.0.0, SVG Export Plug-In . SVG Version: 6.00 Build 0)  -->
<!DOCTYPE svg PUBLIC "-//W3C//DTD SVG 1.1//EN" "http://www.w3.org/Graphics/SVG/1.1/DTD/svg11.dtd">
<svg version="1.1" id="圖層_1" xmlns="http://www.w3.org/2000/svg" xmlns:xlink="http://www.w3.org/1999/xlink" x="0px" y="0px"
	 width="200px" height="200px" viewBox="0 0 200 200" enable-background="new 0 0 200 200" xml:space="preserve">
<path fill="#FFFFFF" d="M99.945,26.886c-20.719,0-37.516,16.797-37.516,37.516c0,20.719,16.796,37.516,37.516,37.516
	c20.718,0,37.515-16.796,37.515-37.516C137.46,43.683,120.663,26.886,99.945,26.886z M99.945,87.587
	c-12.806,0-23.186-10.381-23.186-23.186c0-12.806,10.38-23.186,23.186-23.186c12.805,0,23.186,10.38,23.186,23.186
	C123.131,77.206,112.75,87.587,99.945,87.587z"/>
<g>
	<g>
		<path fill="#FFFFFF" d="M4.454,120.343h4.591l5.088,8.186l5.088-8.186h4.59V139.7h-4.203v-12.638l-5.448,8.269H14.05l-5.393-8.186
			V139.7H4.454V120.343z"/>
		<path fill="#FFFFFF" d="M28.458,120.343h14.574v3.788H32.662v3.927h9.126v3.789h-9.126v4.065H43.17v3.788H28.458V120.343z"/>
		<path fill="#FFFFFF" d="M56.306,140.032c-1.512,0-2.89-0.248-4.134-0.746c-1.244-0.498-2.314-1.189-3.208-2.074
			c-0.894-0.886-1.59-1.937-2.088-3.153c-0.498-1.217-0.747-2.544-0.747-3.981v-0.056c0-1.383,0.253-2.678,0.76-3.886
			c0.507-1.207,1.212-2.268,2.116-3.18c0.903-0.913,1.973-1.632,3.208-2.157c1.235-0.525,2.59-0.788,4.065-0.788
			c0.866,0,1.654,0.06,2.364,0.18c0.709,0.12,1.369,0.29,1.978,0.512c0.608,0.221,1.179,0.498,1.714,0.829
			c0.535,0.332,1.051,0.71,1.549,1.134l-2.683,3.236c-0.369-0.313-0.737-0.59-1.106-0.83c-0.37-0.239-0.752-0.442-1.148-0.608
			c-0.396-0.166-0.825-0.295-1.286-0.388c-0.461-0.092-0.967-0.138-1.521-0.138c-0.775,0-1.499,0.162-2.171,0.485
			c-0.673,0.323-1.263,0.758-1.77,1.303c-0.507,0.545-0.904,1.183-1.189,1.912c-0.287,0.73-0.429,1.511-0.429,2.342v0.056
			c0,0.888,0.143,1.705,0.429,2.453c0.285,0.749,0.691,1.4,1.216,1.954c0.526,0.555,1.143,0.984,1.853,1.289
			c0.709,0.305,1.498,0.457,2.364,0.457c1.585,0,2.922-0.39,4.01-1.17v-2.785h-4.286v-3.678h8.407v8.407
			c-0.996,0.848-2.181,1.572-3.554,2.171C59.647,139.732,58.076,140.032,56.306,140.032z"/>
		<path fill="#FFFFFF" d="M75.305,120.204h3.927l8.297,19.496h-4.453l-1.77-4.342H73.12l-1.77,4.342h-4.342L75.305,120.204z
			 M79.785,131.598l-2.572-6.277l-2.572,6.277H79.785z"/>
		<path fill="#FFFFFF" d="M90.515,120.343h4.59l5.088,8.186l5.089-8.186h4.59V139.7h-4.203v-12.638l-5.448,8.269h-0.111
			l-5.392-8.186V139.7h-4.204V120.343z"/>
		<path fill="#FFFFFF" d="M123.921,140.032c-1.493,0-2.867-0.263-4.12-0.788c-1.254-0.525-2.337-1.235-3.249-2.13
			c-0.913-0.894-1.623-1.944-2.13-3.152c-0.508-1.207-0.761-2.503-0.761-3.885v-0.056c0-1.383,0.259-2.678,0.774-3.886
			c0.516-1.207,1.23-2.268,2.143-3.18c0.913-0.913,2.001-1.632,3.265-2.157c1.262-0.525,2.641-0.788,4.134-0.788
			s2.866,0.263,4.121,0.788c1.253,0.525,2.336,1.235,3.249,2.129c0.912,0.895,1.622,1.945,2.13,3.152
			c0.506,1.209,0.76,2.503,0.76,3.887v0.055c0,1.383-0.259,2.678-0.774,3.886c-0.517,1.207-1.23,2.268-2.144,3.18
			c-0.912,0.913-2.001,1.632-3.263,2.157C126.793,139.77,125.414,140.032,123.921,140.032z M123.977,136.105
			c0.848,0,1.631-0.156,2.351-0.47c0.719-0.313,1.332-0.747,1.839-1.3c0.507-0.554,0.903-1.193,1.189-1.923
			c0.285-0.728,0.429-1.507,0.429-2.336v-0.056c0-0.83-0.144-1.613-0.429-2.351c-0.286-0.737-0.691-1.383-1.217-1.936
			c-0.525-0.554-1.147-0.991-1.867-1.313c-0.719-0.323-1.502-0.484-2.351-0.484c-0.866,0-1.654,0.157-2.364,0.47
			c-0.71,0.314-1.318,0.747-1.825,1.3c-0.507,0.554-0.903,1.194-1.189,1.922c-0.285,0.729-0.429,1.508-0.429,2.338v0.055
			c0,0.83,0.144,1.613,0.429,2.351c0.286,0.737,0.691,1.383,1.218,1.936c0.524,0.554,1.143,0.991,1.853,1.313
			C122.321,135.944,123.109,136.105,123.977,136.105z"/>
		<path fill="#FFFFFF" d="M146.1,140.005c-2.6,0-4.646-0.719-6.14-2.157c-1.493-1.438-2.239-3.585-2.239-6.443v-11.062h4.259v10.951
			c0,1.586,0.368,2.779,1.106,3.581c0.737,0.802,1.76,1.203,3.069,1.203c1.309,0,2.332-0.388,3.069-1.162s1.106-1.936,1.106-3.484
			v-11.089h4.259v10.923c0,1.476-0.198,2.757-0.595,3.844c-0.396,1.089-0.964,1.996-1.701,2.725s-1.632,1.272-2.683,1.632
			S147.39,140.005,146.1,140.005z"/>
		<path fill="#FFFFFF" d="M158.932,120.343h3.927l9.071,11.919v-11.919h4.203V139.7h-3.623l-9.375-12.306V139.7h-4.203V120.343z"/>
		<path fill="#FFFFFF" d="M185.286,124.27h-5.891v-3.927h16.04v3.927h-5.891V139.7h-4.259V124.27z"/>
	</g>
</g>
</svg>
