<?xml version="1.0" encoding="utf-8"?>
<!-- Generator: Adobe Illustrator 16.0.0, SVG Export Plug-In . SVG Version: 6.00 Build 0)  -->
<!DOCTYPE svg PUBLIC "-//W3C//DTD SVG 1.1//EN" "http://www.w3.org/Graphics/SVG/1.1/DTD/svg11.dtd">
<svg version="1.1" id="圖層_1" xmlns="http://www.w3.org/2000/svg" xmlns:xlink="http://www.w3.org/1999/xlink" x="0px" y="0px"
	 width="190.981px" height="20.022px" viewBox="4.454 120.01 190.981 20.022" enable-background="new 4.454 120.01 190.981 20.022"
	 xml:space="preserve">
<g>
	<g>
		<path fill="#FFFFFF" d="M4.454,120.343h4.591l5.088,8.187l5.088-8.187h4.59V139.7h-4.203v-12.638l-5.448,8.269h-0.11l-5.393-8.187
			V139.7H4.454V120.343z"/>
		<path fill="#FFFFFF" d="M28.458,120.343h14.574v3.788h-10.37v3.928h9.126v3.789h-9.126v4.064H43.17v3.788H28.458V120.343z"/>
		<path fill="#FFFFFF" d="M56.306,140.032c-1.512,0-2.89-0.248-4.134-0.746c-1.244-0.498-2.314-1.188-3.208-2.074
			s-1.59-1.937-2.088-3.153s-0.747-2.543-0.747-3.98v-0.057c0-1.383,0.253-2.678,0.76-3.886c0.507-1.206,1.212-2.268,2.116-3.18
			c0.903-0.913,1.973-1.632,3.208-2.157c1.235-0.525,2.59-0.788,4.065-0.788c0.866,0,1.654,0.06,2.364,0.181
			c0.709,0.119,1.369,0.289,1.978,0.512c0.608,0.221,1.179,0.498,1.714,0.829s1.051,0.71,1.549,1.134l-2.683,3.236
			c-0.369-0.313-0.737-0.59-1.106-0.83c-0.37-0.239-0.752-0.442-1.148-0.608s-0.825-0.295-1.286-0.388
			c-0.461-0.092-0.967-0.139-1.521-0.139c-0.775,0-1.499,0.162-2.171,0.485c-0.673,0.323-1.263,0.759-1.77,1.304
			c-0.507,0.545-0.904,1.183-1.189,1.912c-0.287,0.729-0.429,1.51-0.429,2.342v0.056c0,0.888,0.143,1.705,0.429,2.453
			c0.285,0.749,0.691,1.399,1.216,1.954c0.526,0.555,1.143,0.983,1.853,1.289c0.709,0.305,1.498,0.457,2.364,0.457
			c1.585,0,2.922-0.391,4.01-1.17v-2.785h-4.286v-3.678h8.407v8.406c-0.996,0.848-2.181,1.572-3.554,2.171
			C59.647,139.732,58.076,140.032,56.306,140.032z"/>
		<path fill="#FFFFFF" d="M75.305,120.204h3.927l8.297,19.496h-4.453l-1.77-4.343H73.12l-1.77,4.343h-4.342L75.305,120.204z
			 M79.785,131.598l-2.572-6.277l-2.572,6.277H79.785z"/>
		<path fill="#FFFFFF" d="M90.515,120.343h4.59l5.088,8.187l5.089-8.187h4.59V139.7h-4.203v-12.638l-5.448,8.269h-0.111
			l-5.392-8.187V139.7h-4.204L90.515,120.343L90.515,120.343z"/>
		<path fill="#FFFFFF" d="M123.921,140.032c-1.493,0-2.866-0.263-4.12-0.788s-2.337-1.235-3.249-2.13
			c-0.913-0.894-1.622-1.944-2.13-3.152c-0.508-1.207-0.761-2.503-0.761-3.885v-0.056c0-1.383,0.259-2.679,0.774-3.887
			c0.516-1.207,1.229-2.268,2.143-3.18c0.913-0.913,2.001-1.632,3.265-2.157c1.263-0.524,2.642-0.788,4.134-0.788
			c1.494,0,2.866,0.264,4.121,0.788c1.254,0.525,2.336,1.235,3.25,2.129c0.911,0.896,1.621,1.945,2.129,3.152
			c0.506,1.209,0.76,2.503,0.76,3.887v0.056c0,1.383-0.258,2.678-0.773,3.886c-0.518,1.207-1.23,2.268-2.145,3.18
			c-0.911,0.913-2,1.632-3.262,2.157C126.793,139.77,125.414,140.032,123.921,140.032z M123.977,136.105
			c0.849,0,1.631-0.156,2.352-0.471c0.719-0.313,1.332-0.746,1.839-1.3s0.903-1.192,1.188-1.923c0.285-0.729,0.43-1.508,0.43-2.336
			v-0.057c0-0.83-0.145-1.612-0.43-2.351c-0.285-0.737-0.69-1.383-1.217-1.937c-0.525-0.553-1.146-0.99-1.867-1.313
			c-0.719-0.322-1.502-0.484-2.351-0.484c-0.866,0-1.653,0.157-2.364,0.471c-0.709,0.314-1.318,0.746-1.824,1.3
			c-0.508,0.554-0.903,1.194-1.189,1.922c-0.285,0.729-0.43,1.508-0.43,2.338v0.056c0,0.83,0.145,1.612,0.43,2.351
			c0.286,0.737,0.691,1.383,1.219,1.937c0.523,0.553,1.143,0.99,1.852,1.313C122.32,135.943,123.109,136.105,123.977,136.105z"/>
		<path fill="#FFFFFF" d="M146.1,140.005c-2.6,0-4.646-0.719-6.14-2.157c-1.493-1.438-2.239-3.584-2.239-6.442v-11.063h4.26v10.951
			c0,1.586,0.367,2.779,1.105,3.581c0.737,0.802,1.76,1.203,3.068,1.203c1.31,0,2.332-0.389,3.07-1.162
			c0.736-0.773,1.105-1.936,1.105-3.484v-11.089h4.259v10.923c0,1.477-0.198,2.758-0.595,3.844c-0.396,1.09-0.965,1.996-1.701,2.726
			s-1.632,1.272-2.684,1.632C148.559,139.827,147.391,140.005,146.1,140.005z"/>
		<path fill="#FFFFFF" d="M158.932,120.343h3.928l9.07,11.919v-11.919h4.203V139.7h-3.623l-9.375-12.306V139.7h-4.203V120.343z"/>
		<path fill="#FFFFFF" d="M185.286,124.27h-5.892v-3.927h16.041v3.927h-5.892V139.7h-4.259L185.286,124.27L185.286,124.27z"/>
	</g>
</g>
</svg>
